<?xml version="1.0" encoding="UTF-8" standalone="no"?>
<svg
   xmlns:dc="http://purl.org/dc/elements/1.1/"
   xmlns:cc="http://creativecommons.org/ns#"
   xmlns:rdf="http://www.w3.org/1999/02/22-rdf-syntax-ns#"
   xmlns:svg="http://www.w3.org/2000/svg"
   xmlns="http://www.w3.org/2000/svg"
   xmlns:sodipodi="http://sodipodi.sourceforge.net/DTD/sodipodi-0.dtd"
   xmlns:inkscape="http://www.inkscape.org/namespaces/inkscape"
   inkscape:version="1.0 (4035a4fb49, 2020-05-01)"
   sodipodi:docname="generated.svg"
   id="svg36"
   preserveAspectRatio="xMidYMid meet"
   viewBox="0 0 700.000000 906.000000"
   height="906.000000pt"
   width="700.000000pt"
   version="1.0">
  <defs
     id="defs40" />
  <sodipodi:namedview
     inkscape:current-layer="g34"
     inkscape:window-maximized="1"
     inkscape:window-y="-8"
     inkscape:window-x="-8"
     inkscape:cy="746.10097"
     inkscape:cx="513.71613"
     inkscape:zoom="11.258278"
     showgrid="false"
     id="namedview38"
     inkscape:window-height="1017"
     inkscape:window-width="1920"
     inkscape:pageshadow="2"
     inkscape:pageopacity="0"
     guidetolerance="10"
     gridtolerance="10"
     objecttolerance="10"
     borderopacity="1"
     bordercolor="#666666"
     pagecolor="#ffffff" />
  <metadata
     id="metadata2">
Created by potrace 1.12, written by Peter Selinger 2001-2015
<rdf:RDF>
  <cc:Work
     rdf:about="">
    <dc:format>image/svg+xml</dc:format>
    <dc:type
       rdf:resource="http://purl.org/dc/dcmitype/StillImage" />
  </cc:Work>
</rdf:RDF>
</metadata>
  <g
     id="g34"
     stroke="none"
     fill="#000000"
     transform="translate(0.000000,906.000000) scale(0.100000,-0.100000)">
    <path
       id="path4"
       d="M1567 8219 c17 -5 41 -21 52 -35 20 -26 21 -38 21 -421 0 -439 -2 -452 -64 -479 -27 -11 7 -13 253 -16 l283 -3 11 25 c5 14 12 53 15 87 l4 62 -53 -53 c-79 -79 -164 -97 -249 -53 -80 41 -80 40 -80 457 l0 366 28 27 c15 14 38 30 52 36 18 7 -21 10 -140 9 -117 0 -156 -2 -133 -9z" />
    <path
       id="path6"
       d="M2495 8090 c-113 -23 -216 -81 -259 -147 -60 -90 -75 -268 -31 -362 32 -68 123 -157 200 -196 55 -27 69 -30 160 -30 91 0 105 3 158 29 64 33 133 101 169 167 20 38 23 58 23 149 0 97 -2 110 -31 170 -55 116 -135 185 -249 215 -64 16 -80 17 -140 5z m150 -54 c90 -38 166 -150 186 -277 25 -153 -46 -305 -165 -354 -44 -19 -148 -21 -191 -5 -177 66 -263 326 -170 510 27 54 86 108 136 126 47 17 163 17 204 0z" />
    <path
       id="path8"
       d="M3955 8080 l-200 -5 40 -20 40 -20 0 -313 0 -314 -28 -24 -28 -24 184 0 c136 0 187 3 194 13 6 6 13 37 17 67 l6 55 -20 -36 c-11 -20 -32 -42 -50 -49 -39 -16 -117 -9 -153 14 l-27 18 0 144 0 144 43 -1 c90 -1 121 -12 139 -49 16 -34 16 -35 22 -10 2 14 8 47 11 74 7 48 6 49 -17 41 -13 -5 -65 -10 -116 -12 l-93 -4 3 133 3 133 81 0 c88 0 119 -14 126 -59 3 -12 9 2 17 37 7 31 11 61 9 65 -2 4 -93 5 -203 2z" />
    <path
       id="path10"
       d="M4328 8084 c-5 -4 -8 -153 -8 -331 0 -353 3 -333 -58 -373 -21 -14 -14 -15 92 -15 96 0 113 2 99 13 -9 6 -24 12 -34 12 -40 0 -44 23 -47 283 -2 145 0 248 6 246 5 -2 60 -62 122 -134 63 -71 184 -200 269 -285 l155 -155 7 50 c4 28 8 184 8 348 l1 298 33 14 c31 14 30 14 -44 15 -42 0 -91 3 -109 7 -24 4 -31 3 -26 -5 4 -7 18 -12 31 -12 51 0 56 -24 53 -299 l-3 -251 -162 178 c-250 274 -377 405 -385 396z" />
    <path
       id="path12"
       d="M5106 8051 c-3 -23 -9 -60 -12 -83 l-7 -43 51 47 c28 26 61 50 74 53 12 3 80 4 151 3 l127 -3 -114 -170 c-108 -162 -246 -377 -295 -457 l-23 -38 265 0 265 0 6 48 c4 26 10 62 13 81 l6 33 -42 -45 c-23 -24 -54 -50 -69 -56 -17 -7 -81 -11 -175 -9 l-147 3 111 160 c139 199 203 296 267 407 l50 86 -232 4 c-127 3 -238 8 -248 12 -13 6 -17 0 -22 -33z" />
    <path
       id="path14"
       d="M3023 8049 l37 -30 0 -290 c0 -301 -2 -318 -43 -350 -20 -16 -14 -17 95 -15 64 0 114 4 111 9 -2 4 -11 7 -19 7 -8 0 -23 15 -34 33 -16 26 -20 50 -20 133 0 113 3 119 63 107 70 -13 106 -44 191 -164 71 -100 112 -131 180 -137 57 -5 106 3 106 16 0 4 -11 9 -26 10 -71 6 -141 71 -278 260 l-38 52 37 41 c121 134 92 297 -60 338 -22 6 -107 11 -190 11 l-150 0 38 -31z m266 -27 c87 -64 108 -216 41 -284 -26 -26 -34 -28 -104 -28 l-76 0 0 164 c0 148 2 165 18 170 31 9 95 -2 121 -22z" />
    <path
       id="path16"
       d="M4135 7177 c-56 -19 -93 -45 -111 -78 -32 -63 -13 -102 112 -230 111 -113 131 -152 109 -204 -16 -40 -62 -65 -119 -65 -41 0 -90 37 -101 77 -8 28 -8 27 -17 -12 -28 -124 166 -139 270 -20 26 29 32 44 32 83 0 64 -28 106 -123 187 -114 98 -136 158 -78 216 50 49 119 35 160 -32 l18 -30 6 53 c4 28 4 54 2 57 -12 11 -123 10 -160 -2z" />
    <path
       id="path18"
       d="M1596 7151 c23 -14 38 -36 54 -78 17 -46 77 -289 117 -475 3 -16 8 -28 12 -28 3 0 28 57 55 128 27 70 67 174 88 230 22 57 43 100 47 95 4 -4 32 -78 61 -163 63 -185 110 -294 121 -283 5 5 41 121 80 258 76 267 87 295 121 319 21 15 17 16 -62 16 -76 0 -82 -2 -60 -13 23 -12 25 -18 22 -68 -5 -77 -72 -360 -91 -381 -4 -4 -31 65 -60 155 -64 193 -111 311 -122 300 -9 -10 -169 -428 -169 -443 0 -73 -69 227 -86 375 -6 46 -4 52 17 62 20 10 6 12 -76 12 l-100 1 31 -19z" />
    <path
       id="path20"
       d="M2503 7076 c-107 -34 -153 -93 -160 -206 -6 -82 21 -138 92 -192 106 -80 234 -69 314 29 77 94 62 236 -34 321 -67 59 -130 73 -212 48z m137 -35 c134 -71 140 -309 9 -376 -37 -20 -103 -19 -146 2 -99 47 -143 221 -79 316 50 74 141 99 216 58z" />
    <path
       id="path22"
       d="M2986 7071 c-56 -19 -107 -56 -128 -94 -19 -36 -29 -136 -18 -178 20 -73 113 -155 196 -173 41 -9 118 9 161 38 167 114 94 398 -108 421 -29 3 -64 -2 -103 -14z m150 -30 c131 -80 137 -314 11 -374 -43 -21 -109 -22 -146 -3 -147 77 -148 334 -1 389 34 13 106 6 136 -12z" />
    <path
       id="path24"
       d="M4991 7071 c-106 -37 -142 -84 -149 -195 -5 -87 14 -134 79 -190 62 -52 128 -72 195 -57 129 29 200 138 174 266 -30 142 -167 223 -299 176z m166 -39 c78 -55 109 -211 60 -297 -64 -113 -210 -116 -284 -6 -70 104 -48 254 44 309 50 30 134 27 180 -6z" />
    <path
       id="path26"
       d="M3430 7071 c-55 -4 -86 -9 -72 -13 22 -6 22 -8 22 -197 0 -178 -1 -192 -20 -211 l-20 -20 123 0 c151 0 190 10 243 64 102 101 77 291 -46 352 -54 27 -104 32 -230 25z m145 -32 c52 -15 119 -82 134 -134 41 -147 -44 -255 -201 -255 -74 0 -78 11 -78 216 0 94 3 174 7 177 10 11 94 8 138 -4z" />
    <path
       id="path28"
       d="M5361 7062 c17 -12 19 -29 19 -209 0 -175 -2 -197 -17 -209 -16 -12 -7 -13 57 -14 67 0 72 2 50 13 l-25 13 -3 194 c-3 203 -1 209 42 210 10 0 33 -15 52 -34 29 -29 34 -41 34 -79 0 -55 -27 -91 -80 -106 l-35 -11 44 4 c82 8 137 94 113 175 -16 50 -40 59 -168 63 -86 3 -99 1 -83 -10z" />
    <path
       id="path30"
       d="M4373 7059 c15 -9 17 -30 17 -209 0 -179 -2 -200 -17 -209 -14 -8 1 -10 57 -11 67 0 72 2 50 13 -24 12 -25 17 -28 115 l-3 102 126 0 125 0 0 -95 c0 -82 -3 -98 -20 -115 l-20 -20 73 0 c59 1 68 3 52 12 -11 6 -23 16 -27 22 -4 6 -8 96 -8 199 0 185 0 188 23 197 16 6 4 9 -48 9 -66 1 -68 0 -47 -15 19 -13 22 -24 22 -90 l0 -74 -125 0 -125 0 0 80 c0 65 3 81 18 89 13 8 1 10 -48 10 -49 0 -61 -2 -47 -10z" />
    <path
       sodipodi:nodetypes="ccccccccsccccccccccccccsccccsssccccccsccccccccccccccccccsccsccccscccccccccccsccccccccccccccccccsscc"
       id="path32"
       d="m 1543,5243 c 3,-1188 4,-1222 25,-1363 125,-835 427,-1516 948,-2135 128,-153 403,-420 564,-549 134,-107 383,-279 471,-325 l 47,-25 116,73 c 936,584 1615,1550 1840,2619 91,429 96,531 96,1833 V 6460 H 3595 1539 Z m 3785,770 -3,-128 -230,-5 c -130,-3 -221,-8 -210,-13 11,-4 40,-18 65,-30 l 45,-22 -1,-110 c -2,-187 -68,-488 -200,-915 -24,-76 -39,-109 -44,-100 -4,8 -65,185 -134,392 -168,506 -292,816 -316,792 -11,-11 -165,-404 -330,-844 -67,-179 -125,-328 -129,-332 -12,-13 -182,872 -204,1059 -6,49 2,58 81,97 28,14 52,29 52,31 0,3 -362,5 -805,5 -778,0 -805,-1 -805,-19 0,-15 10,-19 54,-24 92,-9 187,-72 229,-151 l 22,-41 V 4410 3165 l -33,-67 c -38,-78 -77,-108 -142,-108 -23,0 -57,7 -76,16 -41,19 -106,88 -132,141 -49,95 -134,414 -171,643 -44,266 -44,265 -48,1323 l -4,1027 H 3595 5331 Z M 3292,5840 c 54,-16 91,-51 131,-127 63,-123 112,-301 217,-792 61,-286 125,-553 141,-581 11,-20 26,17 199,465 225,586 282,727 290,718 5,-4 31,-73 58,-153 28,-80 96,-275 152,-435 56,-159 104,-297 107,-306 4,-14 -9,-17 -89,-22 -162,-9 -300,-67 -388,-163 -55,-60 -73,-105 -74,-184 0,-126 86,-256 309,-465 155,-146 236,-240 277,-322 27,-54 30,-70 26,-127 -5,-77 -37,-130 -107,-176 -162,-108 -392,-59 -457,96 -8,18 -15,59 -17,91 -4.6647,33.6662 -8.6662,40.0132 -14,58 -1.7058,5.7524 -33,-34 -60,-75 -74,-112 -192,-218 -305,-273 -125,-61 -221,-81 -352,-74 -248,14 -415,140 -471,354 -21,81 -22,2236 -1,2296 28,77 118,159 213,192 45,17 163,19 215,5 z m 2035,-847 c -5,-872 -7,-927 -53,-1198 -93,-554 -298,-1065 -615,-1530 -241,-355 -620,-735 -970,-975 -48,-33 -92,-60 -97,-60 -5,0 -57,33 -115,74 -463,324 -849,750 -1133,1251 -99,175 -149,286 -134,295 39,24 1147,24 1558,-1 185,-11 150.7147,-6.3338 203.3382,-8.3088 12.9897,39.3088 22.3221,63.9794 32.3236,97.3103 11,30 19.3382,80.9985 26.3382,108.9985 l 12,53 33,-26 c 101,-77 293,-71 465,14 85,42 194,141 228,207 30,59 43,144 32,209 -21,130 -88,219 -300,400 -180,155 -218,196 -260,280 -69,137 -6,291 139,341 145,49 280,-35 335,-209 4,-10 8,-17 11,-15 11,12 111,345 230,769 154,548 172,602 215,670 43,68 74,90 122,90 h 40 z" />
  </g>
</svg>
