<?xml version="1.0" encoding="UTF-8" standalone="no"?>
<svg
   xmlns:dc="http://purl.org/dc/elements/1.1/"
   xmlns:cc="http://creativecommons.org/ns#"
   xmlns:rdf="http://www.w3.org/1999/02/22-rdf-syntax-ns#"
   xmlns:svg="http://www.w3.org/2000/svg"
   xmlns="http://www.w3.org/2000/svg"
   xmlns:sodipodi="http://sodipodi.sourceforge.net/DTD/sodipodi-0.dtd"
   xmlns:inkscape="http://www.inkscape.org/namespaces/inkscape"
   version="1.0"
   width="700.000000pt"
   height="906.000000pt"
   viewBox="0 0 700.000000 906.000000"
   preserveAspectRatio="xMidYMid meet"
   id="svg36"
   sodipodi:docname="NewLogoTransparentNoText.svg"
   inkscape:version="1.0 (4035a4fb49, 2020-05-01)">
  <defs
     id="defs40" />
  <sodipodi:namedview
     inkscape:document-rotation="0"
     pagecolor="#ffffff"
     bordercolor="#666666"
     borderopacity="1"
     objecttolerance="10"
     gridtolerance="10"
     guidetolerance="10"
     inkscape:pageopacity="0"
     inkscape:pageshadow="2"
     inkscape:window-width="1920"
     inkscape:window-height="1017"
     id="namedview38"
     showgrid="false"
     inkscape:zoom="1.9902012"
     inkscape:cx="606.53174"
     inkscape:cy="525.08812"
     inkscape:window-x="1912"
     inkscape:window-y="-8"
     inkscape:window-maximized="1"
     inkscape:current-layer="g34" />
  <metadata
     id="metadata2">
Created by potrace 1.12, written by Peter Selinger 2001-2015
<rdf:RDF>
  <cc:Work
     rdf:about="">
    <dc:format>image/svg+xml</dc:format>
    <dc:type
       rdf:resource="http://purl.org/dc/dcmitype/StillImage" />
    <dc:title></dc:title>
  </cc:Work>
</rdf:RDF>
</metadata>
  <g
     transform="translate(0.000000,906.000000) scale(0.100000,-0.100000)"
     fill="#000000"
     stroke="none"
     id="g34">
    <path
       d="m 1543,5243 c 3,-1188 4,-1222 25,-1363 125,-835 427,-1516 948,-2135 128,-153 403,-420 564,-549 134,-107 383,-279 471,-325 l 47,-25 116,73 c 936,584 1615,1550 1840,2619 91,429 96,531 96,1833 V 6460 H 3595 1539 Z m 3785,770 -3,-128 -230,-5 c -130,-3 -221,-8 -210,-13 11,-4 40,-18 65,-30 l 45,-22 -1,-110 c -2,-187 -68,-488 -200,-915 -24,-76 -39,-109 -44,-100 -4,8 -65,185 -134,392 -168,506 -292,816 -316,792 -11,-11 -165,-404 -330,-844 -67,-179 -125,-328 -129,-332 -12,-13 -182,872 -204,1059 -6,49 2,58 81,97 28,14 52,29 52,31 0,3 -362,5 -805,5 -778,0 -823.5475,-10.2339 -805,-19 15.6038,-7.3749 13.7685,-8.6367 54,-24 93.8842,-25.016 201.1317,-93.6687 229.9421,-172.6687 19.7844,-52.7584 15.015,-70.7967 15.015,-137.6869 C 2458.6534,5479.6292 2465,4410 2465,4410 V 3165 c -2.3122,-97.4016 -60.0226,-176.3673 -175,-175 -23,0 -57,7 -76,16 -41,19 -106,88 -132,141 -49,95 -134,414 -171,643 -44,266 -44,265 -48,1323 l -4,1027 H 3595 5331 Z M 3292,5840 c 54,-16 91,-51 131,-127 63,-123 112,-301 217,-792 61,-286 125,-553 141,-581 11,-20 26,17 199,465 225,586 282,727 290,718 5,-4 31,-73 58,-153 28,-80 96,-275 152,-435 56,-159 104,-297 107,-306 4,-14 -9,-17 -89,-22 -162,-9 -300,-67 -388,-163 -55,-60 -73,-105 -74,-184 0,-126 86,-256 309,-465 155,-146 236,-240 277,-322 27,-54 30,-70 26,-127 -5,-77 -37,-130 -107,-176 -162,-108 -392,-59 -457,96 -8,18 -15,59 -17,91 -4.6647,33.6662 -8.6662,40.0132 -14,58 -1.7058,5.7524 -33,-34 -60,-75 -74,-112 -192,-218 -305,-273 -125,-61 -221,-81 -352,-74 -248,14 -456.4531,138.1158 -471,354 -24.7685,81 -22,2236 -1,2296 28,77 118,159 213,192 45,17 163,19 215,5 z m 2035,-847 c -5,-872 -7,-927 -53,-1198 -93,-554 -298,-1065 -615,-1530 -241,-355 -620,-735 -970,-975 -48,-33 -92,-60 -97,-60 -5,0 -57,33 -115,74 -463,324 -849,750 -1133,1251 -99,175 -149,286 -134,295 39,24 1147,24 1558,-1 185,-11 150.7147,-6.3338 203.3382,-8.3088 12.9897,39.3088 22.3221,63.9794 32.3236,97.3103 11,30 19.3382,80.9985 26.3382,108.9985 l 12,53 33,-26 c 101,-77 293,-71 465,14 85,42 194,141 228,207 30,59 43,144 32,209 -21,130 -88,219 -300,400 -180,155 -218,196 -260,280 -69,137 -6,291 139,341 145,49 280,-35 335,-209 4,-10 8,-17 11,-15 11,12 111,345 230,769 154,548 172,602 215,670 43,68 74,90 122,90 h 40 z"
       id="path32"
       sodipodi:nodetypes="ccccccccsccccccccccccccsccccsssccccccccccccccccccccccccsccsccccscccccccccccsccccccccccccccccccsscc" />
  </g>
</svg>
